<svg width="12" height="13" viewBox="0 0 12 13" fill="none" xmlns="http://www.w3.org/2000/svg">
<path fill-rule="evenodd" clip-rule="evenodd" d="M9 0.260254C9.33137 0.260254 9.6 0.528883 9.6 0.860254V1.46025H10.2C11.1941 1.46025 12 2.26614 12 3.26025V10.4603C12 11.4544 11.1941 12.2603 10.2 12.2603H1.8C0.805887 12.2603 0 11.4544 0 10.4603V3.26025C0 2.26614 0.805887 1.46025 1.8 1.46025H2.4V0.860254C2.4 0.528883 2.66863 0.260254 3 0.260254C3.33137 0.260254 3.6 0.528883 3.6 0.860254V1.46025H8.4V0.860254C8.4 0.528883 8.66863 0.260254 9 0.260254ZM1.20004 6.26143V10.4614C1.20004 10.7928 1.46867 11.0614 1.80004 11.0614H10.2C10.5314 11.0614 10.8 10.7928 10.8 10.4614V6.26143H1.20004ZM1.20004 5.06143H10.8V3.26143C10.8 2.93006 10.5314 2.66143 10.2 2.66143H9.60004V3.26143C9.60004 3.5928 9.33141 3.86143 9.00004 3.86143C8.66867 3.86143 8.40004 3.5928 8.40004 3.26143V2.66143H3.60004V3.26143C3.60004 3.5928 3.33141 3.86143 3.00004 3.86143C2.66867 3.86143 2.40004 3.5928 2.40004 3.26143V2.66143H1.80004C1.46867 2.66143 1.20004 2.93006 1.20004 3.26143V5.06143Z" fill="#A8A4A7"/>
</svg>
